# xmcd
#
# Track frame offsets: 
#        150
#        76950
#        116690
#        138080
#        210627
#
# Disc length: 3546 seconds
#
# Revision: 0
# Processed by: cddbd v1.5.2PL0 Copyright (c) Steve Scherf et al.
# Submitted via: ExactAudioCopy v1.0b1
#
DISCID=3b0dd805
DTITLE=Eugen Jochum - Brahms  Symphony No 1 etc,Japan EMI,CD7
DYEAR=2002
DGENRE=Classical
TTITLE0=Symphonie No.1 in C minor , Op.68,1. Un poco sostenuto
TTITLE1=Symphonie No.1 in C minor , Op.68,2. Andante sostenuto
TTITLE2=Symphonie No.1 in C minor , Op.68,3. Un poco allegretto e graz
TTITLE2=ioso
TTITLE3=Symphonie No.1 in C minor , Op.68,4. Finale. Adagio - Piu anda
TTITLE3=nte
TTITLE4=Academic Festival Overture ,  Op.80
EXTD=
EXTT0=
EXTT1=
EXTT2=
EXTT3=
EXTT4=
PLAYORDER=
